<?xml version="1.0" encoding="utf-8"?>
<!-- Generator: Adobe Illustrator 15.0.0, SVG Export Plug-In . SVG Version: 6.00 Build 0)  -->
<!DOCTYPE svg PUBLIC "-//W3C//DTD SVG 1.1//EN" "http://www.w3.org/Graphics/SVG/1.1/DTD/svg11.dtd">
<svg version="1.1" id="圖層_1" xmlns="http://www.w3.org/2000/svg" xmlns:xlink="http://www.w3.org/1999/xlink" x="0px" y="0px"
	 width="501px" height="91px" viewBox="0 0 501 91" enable-background="new 0 0 501 91" xml:space="preserve">
<path fill="#000000" d="M454.4,71.8V67.9h2c1,0,1.899,0.3,2.8,1c1,0.8,1.5,1.899,1.5,3.3V90.6h-3.9V72.2V72.1V72l0,0l0,0
	c0,0-0.1,0-0.1-0.1c-0.101,0-0.2,0-0.2-0.101H454.4z"/>
<path fill="#000000" d="M463.7,75v-1c0-1.7,0.6-3.2,1.8-4.3c1.2-1.2,2.6-1.8,4.3-1.8h24c1.7,0,3.101,0.6,4.3,1.8
	c1.2,1.2,1.801,2.6,1.801,4.3v1c0,1.6-0.5,3-1.601,4.2c1.101,1.2,1.601,2.6,1.601,4.2v1.1c0,1.7-0.601,3.1-1.801,4.3
	c-1.199,1.2-2.6,1.8-4.3,1.8h-24c-1.7,0-3.2-0.6-4.3-1.8c-1.2-1.2-1.8-2.6-1.8-4.3v-1.1c0-1.601,0.5-3,1.6-4.2
	C464.2,78,463.7,76.6,463.7,75z M496.1,74c0-0.6-0.199-1.1-0.699-1.6c-0.4-0.4-1-0.7-1.601-0.7h-24c-0.6,0-1.1,0.2-1.6,0.7
	c-0.4,0.399-0.7,1-0.7,1.6v1c0,0.6,0.2,1.1,0.7,1.6c0.399,0.4,1,0.7,1.6,0.7h24c0.601,0,1.101-0.2,1.601-0.7
	c0.399-0.399,0.699-1,0.699-1.6V74z M496.1,83.4c0-0.601-0.199-1.101-0.699-1.601c-0.4-0.399-1-0.7-1.601-0.7h-24
	c-0.6,0-1.1,0.2-1.6,0.7c-0.4,0.4-0.7,1-0.7,1.601v1.1c0,0.6,0.2,1.1,0.7,1.6c0.399,0.4,1,0.7,1.6,0.7h24
	c0.601,0,1.101-0.2,1.601-0.7C495.8,85.7,496.1,85.2,496.1,84.5V83.4z"/>
<path fill="#000000" d="M27.7,62.5l27.7-30.3v57.3h-6.1V47.9L27.7,71.4L6.1,47.9v41.6H0V32.2L27.7,62.5z"/>
<path fill="#000000" d="M84.1,43.2c6.6,0,12.2,2.3,16.9,6.899c4.6,4.601,6.9,10.301,6.9,16.9c0,6.5-2.3,12.1-6.9,16.8
	S90.7,90.9,84.1,90.9c-6.5,0-12.1-2.4-16.8-7.101c-4.7-4.7-7.1-10.3-7.1-16.8c0-6.6,2.4-12.2,7.1-16.9
	C72.1,45.5,77.6,43.2,84.1,43.2z M84.1,49.3c-5,0-9.2,1.7-12.6,5.101C68.1,57.8,66.4,62,66.4,67s1.7,9.2,5.1,12.6
	C74.9,83,79.1,84.7,84.1,84.7c4.9,0,9.1-1.7,12.6-5.2c3.5-3.4,5.2-7.6,5.2-12.6c0-4.9-1.7-9.101-5.2-12.601
	C93.2,51,89,49.3,84.1,49.3z"/>
<path fill="#000000" d="M203.3,75.3l5.3,3c-2,3.7-4.8,6.8-8.6,9.101c-3.7,2.3-7.9,3.5-12.3,3.5c-6.5,0-12.1-2.4-16.8-7.101
	c-4.7-4.7-7.1-10.3-7.1-16.8c0-6.6,2.4-12.2,7.1-16.9c4.7-4.6,10.3-6.899,16.8-6.899c4.1,0,8,1,11.6,3.1c3.6,2.101,6.4,4.7,8.4,7.8
	L176.9,81.2c3.1,2.399,6.6,3.5,10.7,3.5c3.4,0,6.4-0.8,9.2-2.5C199.6,80.5,201.7,78.2,203.3,75.3z M172.8,76.9l26.3-23.4
	c-3.3-2.9-7.2-4.3-11.6-4.3c-5,0-9.2,1.7-12.6,5.1c-3.4,3.4-5.1,7.601-5.1,12.601C169.9,70.6,170.9,73.9,172.8,76.9z"/>
<path fill="#000000" d="M381.7,75.3l5.3,3c-2,3.7-4.8,6.8-8.6,9.101c-3.7,2.3-7.9,3.5-12.301,3.5c-6.5,0-12.1-2.4-16.8-7.101
	s-7.1-10.3-7.1-16.8c0-6.6,2.399-12.2,7.1-16.9c4.7-4.6,10.3-6.899,16.8-6.899c4.101,0,8,1,11.601,3.1
	c3.6,2.101,6.399,4.7,8.399,7.8L355.3,81.2c3.101,2.399,6.7,3.5,10.7,3.5c3.4,0,6.4-0.8,9.2-2.5S380.1,78.2,381.7,75.3z M351.2,76.9
	l26.3-23.4c-3.3-2.9-7.2-4.3-11.6-4.3c-5,0-9.2,1.7-12.601,5.1c-3.399,3.4-5.1,7.601-5.1,12.601C348.2,70.6,349.2,73.9,351.2,76.9z"
	/>
<polygon fill="#000000" points="338.3,32.2 324.8,72.1 311.6,33 298.4,72.1 284.8,32.2 278.4,32.2 298.4,90.9 311.6,51.9 
	324.8,90.9 344.7,32.2 "/>
<path fill="#000000" d="M238,44.4c-2-0.7-4.1-1.2-6.4-1.2c-5.1,0-9.3,1.7-12.8,5.2c-3.5,3.5-5.2,7.699-5.2,12.8v28.3h6.1V61.2
	c0-3.5,1.2-6.3,3.5-8.5c2.3-2.2,5.1-3.4,8.4-3.4c1.4,0,2.7,0.2,3.9,0.7L238,44.4z"/>
<path fill="#000000" d="M273,48.4c-3.5-3.4-7.7-5.2-12.8-5.2l0,0l0,0l0,0l0,0l0,0c-5.101,0-9.3,1.7-12.8,5.2
	c-3.5,3.5-5.2,7.699-5.2,12.8v28.3h6.1V61.2c0-3.5,1.2-6.3,3.5-8.5s5.101-3.4,8.4-3.4l0,0c3.3,0,6.1,1.101,8.399,3.4
	c2.301,2.2,3.5,5.1,3.5,8.5v28.3h6.101V61.2C278.2,56.1,276.4,51.8,273,48.4z"/>
<path fill="#000000" d="M392.2,32.1V67c0-1.6,0.1-3.1,0.399-4.6c-0.3,1.5-0.399,3-0.399,4.6c0,6.5,2.3,12.1,6.899,16.8
	C403.7,88.5,409.4,90.9,416,90.9c6.5,0,12.1-2.4,16.8-7.101S439.9,73.5,439.9,67c0-6.6-2.4-12.2-7.101-16.9
	c-4.7-4.6-10.3-6.899-16.8-6.899c-6.6,0-12.2,2.3-16.9,6.899c-0.199,0.2-0.3,0.4-0.5,0.601c-0.1,0.1-0.199,0.2-0.399,0.399v-19
	H392.2z M398.3,67c0-4.9,1.7-9.1,5.2-12.6s7.6-5.2,12.6-5.2s9.2,1.7,12.601,5.1c3.399,3.4,5.1,7.601,5.1,12.601s-1.7,9.199-5.1,12.6
	c-3.4,3.4-7.601,5.1-12.601,5.1c-4.899,0-9.1-1.699-12.6-5.199C400,76.1,398.3,71.9,398.3,67z M393.7,58.6
	c0.1-0.1,0.1-0.3,0.1-0.399C393.8,58.3,393.8,58.5,393.7,58.6z"/>
<polygon fill="#000000" points="447.8,72.6 445.2,72.6 446.5,65.2 450.9,65.2 "/>
<path fill="#000000" d="M163.105,20.785c0.185-1.252,0.295-2.547,0.295-3.885c0-7.7-3.2-14.3-7.7-16.9c-4.5,2.6-7.7,9.2-7.7,16.9
	c0,1.364,0.112,2.686,0.304,3.96c-1.969,1.755-3.204,4.205-3.204,6.94c0,1.7,0.5,3.3,1.3,4.7c1.084-1.445,2.791-2.627,4.845-3.346
	c0.481,0.774,0.993,1.506,1.555,2.146v19.8c-0.1-0.1-0.2-0.199-0.3-0.399c-0.2-0.2-0.3-0.4-0.5-0.601
	c-4.6-4.6-10.3-6.899-16.9-6.899c-6.5,0-12.1,2.3-16.8,6.899c-4.7,4.601-7.1,10.301-7.1,16.9c0,6.5,2.4,12.1,7.1,16.8
	c4.7,4.7,10.3,7.101,16.8,7.101c6.6,0,12.2-2.4,16.9-7.101c4.6-4.7,6.9-10.3,6.9-16.8c0-0.8,0-1.199,0-1.199v-34.88
	c0.451-0.557,0.878-1.155,1.275-1.798c2.091,0.716,3.827,1.914,4.925,3.377c0.8-1.4,1.3-3,1.3-4.7
	C166.4,25.024,165.126,22.545,163.105,20.785z M143.609,59.965c-1.114-0.671-2.414-1.064-3.81-1.064c-4.087,0-7.4,3.312-7.4,7.399
	c0,0.749,0.113,1.472,0.32,2.152c-1.978,0.631-3.42,2.461-3.42,4.647c0,0.056,0.015,0.107,0.017,0.162
	c-3.474,0.441-6.116,3.432-6.116,6.938c0,0.081,0.01,0.159,0.012,0.24c-0.272-0.243-0.549-0.478-0.812-0.74
	c-3.4-3.4-5.1-7.601-5.1-12.601s1.7-9.199,5.1-12.6s7.6-5.1,12.6-5.1c4.9,0,9.1,1.699,12.6,5.199
	c0.526,0.525,0.998,1.07,1.442,1.624C146.628,56.392,144.582,57.875,143.609,59.965z M155.7,15.7c-2.43,0-4.4-1.97-4.4-4.4
	c0-2.43,1.97-4.4,4.4-4.4c2.43,0,4.4,1.97,4.4,4.4C160.1,13.73,158.13,15.7,155.7,15.7z"/>
</svg>
